<svg width="53" height="54" viewBox="0 0 53 54" fill="none" xmlns="http://www.w3.org/2000/svg">
    <g clip-path="url(#clip0_4966_129)">
        <path d="M3.15654 30.9583C4.98733 31.0226 6.50246 29.2849 6.50246 27.0322C6.50246 24.8439 4.98733 23.1061 3.15654 23.1704C1.38888 23.2348 0 24.9726 0 27.0965C0 29.1561 1.38888 30.8939 3.15654 30.9583Z" fill="#BCCBD1"/>
        <path d="M46.0854 15.0608C46.2117 17.1847 47.8531 18.9869 49.6207 19.0513C51.3884 19.18 52.5879 17.6353 52.4616 15.64C52.2722 13.6448 50.7571 11.907 49.0526 11.7139C47.2849 11.5209 45.9592 13.0012 46.0854 15.0608Z" fill="#BCCBD1"/>
        <path d="M4.29289 45.8904C2.6515 45.6329 1.57827 46.7914 1.95706 48.5292C2.33584 50.1383 3.85098 51.683 5.42925 52.0692C7.07064 52.391 8.27013 51.3612 7.95447 49.6234C7.70195 47.8856 6.06055 46.1478 4.29289 45.8904Z" fill="#BCCBD1"/>
        <path d="M5.42924 1.9952C3.85097 2.38138 2.33583 3.92607 1.95705 5.53513C1.6414 7.20855 2.65149 8.43144 4.29289 8.17399C6.06055 7.91654 7.70194 6.24312 7.95447 4.44097C8.27012 2.76755 7.13377 1.67339 5.42924 1.9952Z" fill="#BCCBD1"/>
        <path d="M6.88125 39.0036C6.75499 36.8796 5.11359 35.0775 3.34593 35.0131C1.57827 34.8844 0.378784 36.4291 0.568176 38.4243C0.757568 40.4195 2.27271 42.1573 3.9141 42.3504C5.68176 42.5435 7.00751 41.0632 6.88125 39.0036Z" fill="#BCCBD1"/>
        <path d="M49.8101 23.1704C47.9793 23.1061 46.4642 24.8439 46.4642 27.0322C46.4642 29.2205 47.9793 31.0226 49.8101 30.9583C51.5778 30.8939 52.9667 29.1561 52.9667 27.0322C52.9667 24.9726 51.5778 23.1704 49.8101 23.1704Z" fill="#BCCBD1"/>
        <path d="M14.1413 31.1514C16.2877 31.1514 18.1185 29.3492 18.1185 27.0322C18.1185 24.7151 16.3509 22.8486 14.1413 22.913C11.9948 22.9774 10.2903 24.7795 10.2903 27.0322C10.2903 29.2849 11.9948 31.1514 14.1413 31.1514Z" fill="#BCCBD1"/>
        <path d="M3.28279 19.1156C5.11358 19.0513 6.69185 17.1847 6.81811 15.1252C6.94438 13.0656 5.61863 11.5852 3.85097 11.7783C2.14644 12.0358 0.694435 13.7735 0.441912 15.7044C0.315651 17.6996 1.57826 19.2443 3.28279 19.1156Z" fill="#BCCBD1"/>
        <path d="M26.4518 6.62932C28.6613 6.62932 30.3659 5.08462 30.3027 3.21812C30.2396 1.41597 28.5351 0 26.4518 0C24.3685 0 22.6639 1.41597 22.6008 3.21812C22.6008 5.08462 24.3053 6.62932 26.4518 6.62932Z" fill="#BCCBD1"/>
        <path d="M48.6738 8.174C50.3152 8.43145 51.3884 7.27293 51.0096 5.53514C50.6308 3.92608 49.1157 2.38139 47.5374 1.99521C45.896 1.6734 44.6965 2.7032 44.9491 4.37662C45.2647 6.17877 46.9061 7.91655 48.6738 8.174Z" fill="#BCCBD1"/>
        <path d="M14.2044 18.6007C16.3509 18.5364 18.1816 16.6699 18.2448 14.4815C18.3079 12.2932 16.6034 10.6842 14.5201 10.8129C12.4367 10.9416 10.7322 12.7437 10.606 14.8033C10.4797 16.9917 12.058 18.6651 14.2044 18.6007Z" fill="#BCCBD1"/>
        <path d="M38.4466 10.8129C36.3633 10.6841 34.6588 12.3576 34.7219 14.4815C34.785 16.6698 36.6158 18.5363 38.7623 18.6007C40.9087 18.6651 42.487 16.9273 42.3607 14.8033C42.2976 12.7437 40.5299 10.9416 38.4466 10.8129Z" fill="#BCCBD1"/>
        <path d="M38.7623 35.4636C36.6158 35.528 34.785 37.3945 34.7219 39.5828C34.6588 41.7712 36.3633 43.3802 38.4466 43.3159C40.5299 43.1871 42.2344 41.385 42.3607 39.3254C42.487 37.1371 40.8456 35.3993 38.7623 35.4636Z" fill="#BCCBD1"/>
        <path d="M48.6106 45.9547C46.843 46.2121 45.2016 47.8856 44.9491 49.6234C44.6334 51.3611 45.8329 52.3909 47.4743 52.0691C49.0526 51.7473 50.5677 50.1383 50.9465 48.5292C51.3253 46.8558 50.3152 45.6329 48.6106 45.9547Z" fill="#BCCBD1"/>
        <path d="M49.6839 34.9487C47.8531 35.0775 46.2748 36.8796 46.0854 39.0036C45.9592 41.0632 47.2849 42.5435 49.0526 42.3504C50.7571 42.093 52.2722 40.3552 52.4616 38.4243C52.651 36.4291 51.3884 34.8844 49.6839 34.9487Z" fill="#BCCBD1"/>
        <path d="M38.1941 47.0489C36.1108 47.1776 34.3431 48.7866 34.2168 50.6531C34.0906 52.3909 35.6057 53.6782 37.5628 53.4851C39.5198 53.292 41.1612 51.7473 41.4137 50.0739C41.6663 48.2717 40.2143 46.9201 38.1941 47.0489Z" fill="#BCCBD1"/>
        <path d="M14.2044 35.4636C12.058 35.3993 10.4797 37.0727 10.606 39.261C10.7322 41.385 12.4999 43.1227 14.5201 43.2515C16.6034 43.3158 18.3079 41.7068 18.2448 39.5828C18.1816 37.3301 16.3509 35.528 14.2044 35.4636Z" fill="#BCCBD1"/>
        <path d="M15.2776 0.579256C13.3206 0.772343 11.6792 2.31704 11.4267 3.99046C11.2373 5.7926 12.6893 7.14421 14.7095 7.01549C16.7928 6.88676 18.5604 5.21334 18.6867 3.4112C18.813 1.60905 17.2978 0.386169 15.2776 0.579256Z" fill="#BCCBD1"/>
        <path d="M26.4518 22.8486C24.1791 22.8486 22.3483 24.7151 22.3483 27.0965C22.3483 29.4136 24.1791 31.2801 26.5149 31.2801C28.7876 31.2801 30.6184 29.4136 30.6184 27.0322C30.6184 24.7151 28.7876 22.8486 26.4518 22.8486Z" fill="#BCCBD1"/>
        <path d="M26.5149 47.4351C24.3685 47.4351 22.6008 48.9798 22.6639 50.8463C22.7271 52.6484 24.4316 54.0644 26.5149 54.0644C28.5351 54.0644 30.2396 52.6484 30.3027 50.8463C30.3659 48.9798 28.6613 47.4351 26.5149 47.4351Z" fill="#BCCBD1"/>
        <path fill-rule="evenodd" clip-rule="evenodd" d="M38.8254 22.913C36.7421 22.913 34.9113 22.1406 33.4593 20.5959C33.1436 20.2741 33.1436 20.2741 32.828 19.9523C31.3128 18.4076 30.5553 16.6055 30.5553 14.4815C30.4921 12.3576 31.2497 10.6198 32.6386 9.33254C32.9542 9.07509 32.9542 9.07509 33.2699 8.75327C34.6588 7.46603 36.3633 6.88677 38.2572 7.01549C40.3405 7.14422 41.7925 5.79261 41.6031 3.99046C41.4137 2.25268 39.6461 0.772344 37.7522 0.514895C35.7951 0.38617 34.28 1.60905 34.4062 3.4112C34.5325 5.14898 33.9012 6.69368 32.5123 7.98093C32.1967 8.23838 32.1967 8.23838 31.9441 8.56019C30.4921 9.9118 28.7245 10.5554 26.6412 10.5554C24.3685 10.5554 22.5377 12.2932 22.5377 14.4815C22.5377 16.6698 24.3053 18.5364 26.578 18.5364C28.7245 18.5364 30.6184 19.3087 32.1335 20.8534C32.4492 21.1752 32.4492 21.1752 32.7648 21.497C34.28 23.0417 35.0375 24.9082 34.9744 27.0965C34.9744 29.3492 34.2168 31.2157 32.7648 32.7604C32.4492 33.0822 32.4492 33.0822 32.1335 33.4041C30.6184 34.9487 28.7876 35.7211 26.6412 35.6567C24.3053 35.6567 22.5377 37.4589 22.5377 39.7116C22.6008 41.7712 21.8432 43.5089 20.4543 44.8605C20.1387 45.118 20.1387 45.118 19.823 45.4398C18.4342 46.7271 16.7928 47.3063 14.8357 47.1776C12.7524 47.0489 11.3004 48.4005 11.4898 50.2026C11.7423 51.9404 13.4468 53.4207 15.3408 53.6782C17.2978 53.8713 18.813 52.584 18.6867 50.8462C18.5604 49.1085 19.1917 47.5638 20.5806 46.2765C20.8963 46.0191 20.8963 46.0191 21.1488 45.6973C22.5377 44.3456 24.3685 43.702 26.4518 43.702C28.6613 43.702 30.4921 41.9642 30.5553 39.7759C30.5553 37.652 31.3128 35.7855 32.828 34.3051C33.1436 33.9833 33.1436 33.9833 33.4593 33.6615C34.9744 32.1168 36.7421 31.3445 38.8254 31.3445C40.9718 31.3445 42.7395 29.4779 42.7395 27.2253C42.6764 24.7795 40.9718 22.913 38.8254 22.913Z" fill="#109AAF"/>
    </g>
    <defs>
        <clipPath id="clip0_4966_129">
            <rect width="52.9667" height="54" fill="white"/>
        </clipPath>
    </defs>
</svg>
